<svg width="163" height="145" viewBox="0 0 163 145" fill="none" xmlns="http://www.w3.org/2000/svg">
<g opacity="0.86" filter="url(#filter0_d_4115_11665)">
<g clip-path="url(#clip0_4115_11665)">
<rect x="12.4609" y="10.6016" width="137.202" height="119.139" rx="26.2557" fill="url(#paint0_linear_4115_11665)"/>
<g filter="url(#filter1_d_4115_11665)">
<path d="M79.902 95.3526L61.4785 105.885C60.6638 106.377 59.8217 106.573 58.9522 106.472C58.0827 106.371 57.329 106.051 56.6909 105.513C56.0528 104.975 55.5638 104.313 55.2241 103.526C54.8843 102.74 54.838 101.868 55.0851 100.91L60.5141 80.0899L44.9231 65.5007C44.2169 64.8124 43.7866 64.0393 43.6322 63.1816C43.4778 62.3239 43.5567 61.4942 43.8689 60.6925C44.1811 59.8908 44.6371 59.2387 45.2369 58.7361C45.8367 58.2336 46.6459 57.9256 47.6643 57.8122L68.8601 56.5841L77.63 37.0895C78.0201 36.2132 78.604 35.565 79.3816 35.145C80.1592 34.725 80.9461 34.5274 81.7422 34.5522C82.5384 34.5769 83.3118 34.8231 84.0626 35.2907C84.8134 35.7583 85.3569 36.4416 85.6933 37.3405L93.2677 57.3439L114.349 59.8881C115.362 60.0677 116.151 60.4254 116.716 60.9613C117.282 61.4971 117.697 62.1764 117.963 62.9991C118.229 63.8217 118.259 64.6563 118.053 65.5028C117.847 66.3493 117.37 67.0926 116.62 67.7326L100.176 81.3246L104.336 102.443C104.525 103.412 104.426 104.279 104.039 105.046C103.652 105.813 103.124 106.444 102.455 106.938C101.786 107.432 101.014 107.705 100.14 107.754C99.266 107.804 98.4373 107.556 97.654 107.011L79.902 95.3526Z" fill="#F9E618"/>
<path d="M81.7116 35.5771C82.3075 35.5957 82.9067 35.7784 83.521 36.161C84.0628 36.4985 84.4686 36.9934 84.7328 37.6995L84.7346 37.7034L92.3087 57.7066L92.5286 58.2879L93.1458 58.3619L114.193 60.9017C115.058 61.0583 115.635 61.349 116.011 61.7058C116.438 62.1108 116.768 62.6367 116.987 63.3141C117.194 63.9546 117.218 64.5959 117.056 65.2596C116.908 65.8698 116.562 66.4333 115.954 66.9526L99.5228 80.5339L99.0519 80.9228L99.1705 81.5224L103.329 102.641C103.481 103.419 103.392 104.049 103.123 104.583C102.806 105.212 102.381 105.717 101.845 106.113C101.344 106.482 100.767 106.691 100.081 106.73C99.4575 106.765 98.8526 106.596 98.2399 106.169L98.2169 106.153L80.4648 94.4955L79.9389 94.1499L79.3921 94.4621L60.9693 104.994L60.9475 105.007C60.3091 105.393 59.6929 105.526 59.0698 105.453C58.3902 105.374 57.8279 105.131 57.3517 104.73C56.8384 104.297 56.4438 103.765 56.1654 103.121C55.9299 102.575 55.8792 101.941 56.0779 101.17L61.5061 80.3499L61.6608 79.7588L61.2142 79.3414L45.6354 64.7636C45.0634 64.2051 44.7528 63.6194 44.6414 63.0004C44.5202 62.3265 44.5824 61.6889 44.8251 61.0657C45.0811 60.4083 45.4408 59.9033 45.8957 59.5221C46.2957 59.187 46.8881 58.9344 47.7533 58.8345L68.9202 57.6077L69.5407 57.5723L69.7952 57.0057L78.5658 37.5114L78.5668 37.5075C78.8732 36.8193 79.3082 36.3505 79.8694 36.0473C80.5059 35.7036 81.1157 35.5585 81.7116 35.5771Z" stroke="black" stroke-width="2.05122"/>
</g>
</g>
</g>
<defs>
<filter id="filter0_d_4115_11665" x="0.000432968" y="0.000834703" width="162.124" height="144.06" filterUnits="userSpaceOnUse" color-interpolation-filters="sRGB">
<feFlood flood-opacity="0" result="BackgroundImageFix"/>
<feColorMatrix in="SourceAlpha" type="matrix" values="0 0 0 0 0 0 0 0 0 0 0 0 0 0 0 0 0 0 127 0" result="hardAlpha"/>
<feOffset dy="1.85978"/>
<feGaussianBlur stdDeviation="6.23025"/>
<feComposite in2="hardAlpha" operator="out"/>
<feColorMatrix type="matrix" values="0 0 0 0 0.719545 0 0 0 0 0.893246 0 0 0 0 0.980769 0 0 0 1 0"/>
<feBlend mode="normal" in2="BackgroundImageFix" result="effect1_dropShadow_4115_11665"/>
<feBlend mode="normal" in="SourceGraphic" in2="effect1_dropShadow_4115_11665" result="shape"/>
</filter>
<filter id="filter1_d_4115_11665" x="30.4269" y="34.5508" width="100.888" height="99.4647" filterUnits="userSpaceOnUse" color-interpolation-filters="sRGB">
<feFlood flood-opacity="0" result="BackgroundImageFix"/>
<feColorMatrix in="SourceAlpha" type="matrix" values="0 0 0 0 0 0 0 0 0 0 0 0 0 0 0 0 0 0 127 0" result="hardAlpha"/>
<feOffset dy="13.1278"/>
<feGaussianBlur stdDeviation="6.56392"/>
<feComposite in2="hardAlpha" operator="out"/>
<feColorMatrix type="matrix" values="0 0 0 0 0 0 0 0 0 0 0 0 0 0 0 0 0 0 0.25 0"/>
<feBlend mode="normal" in2="BackgroundImageFix" result="effect1_dropShadow_4115_11665"/>
<feBlend mode="normal" in="SourceGraphic" in2="effect1_dropShadow_4115_11665" result="shape"/>
</filter>
<linearGradient id="paint0_linear_4115_11665" x1="29.3046" y1="14.1056" x2="121.173" y2="131.995" gradientUnits="userSpaceOnUse">
<stop stop-color="#2BF620"/>
<stop offset="1" stop-color="#1FDA16"/>
</linearGradient>
<clipPath id="clip0_4115_11665">
<rect x="12.4609" y="10.6016" width="137.202" height="119.139" rx="26.2557" fill="white"/>
</clipPath>
</defs>
</svg>
