<svg width="135" height="114" viewBox="0 0 135 114" fill="none" xmlns="http://www.w3.org/2000/svg">
<g opacity="0.85">
<rect width="134.651" height="113.802" rx="26.777" fill="url(#paint0_linear_4115_11667)"/>
<path d="M101.146 36.4363C101.099 35.6503 100.766 34.9087 100.209 34.352C99.6528 33.7953 98.9112 33.4621 98.1252 33.4156C83.8472 32.5766 72.3406 36.9965 67.3445 45.2465C64.0906 50.6071 63.978 57.0854 66.9532 63.285C65.505 65.1323 64.391 67.2186 63.6617 69.4497L60.2685 66.0564C62.1956 61.5615 61.9919 56.9139 59.6252 53.006C55.8781 46.8118 47.344 43.4989 36.7996 44.1073C36.0132 44.1539 35.2713 44.4875 34.7145 45.0448C34.1577 45.6021 33.8248 46.3443 33.7789 47.1307C33.1678 57.6751 36.4807 66.2092 42.6695 69.9563C44.7685 71.2356 47.1802 71.91 49.6383 71.9049C51.7341 71.888 53.8044 71.4438 55.7226 70.5996L62.6513 77.5389V83.7036C62.6513 84.5566 62.9901 85.3747 63.5933 85.9779C64.1965 86.5811 65.0146 86.92 65.8676 86.92C66.7207 86.92 67.5388 86.5811 68.1419 85.9779C68.7451 85.3747 69.084 84.5566 69.084 83.7036V75.7994C69.0774 72.9243 69.9664 70.1185 71.6276 67.7718C74.3185 69.0466 77.254 69.7224 80.2314 69.7526C83.435 69.7599 86.5784 68.8825 89.315 67.217C97.5623 62.2209 101.988 50.7143 101.146 36.4363ZM46.0011 64.4536C42.4658 62.3093 40.3242 57.0935 40.15 50.4811C46.7624 50.6553 51.9809 52.7969 54.1225 56.3322C54.96 57.6945 55.3035 59.3033 55.0954 60.8888L52.0587 57.8413C51.4544 57.237 50.6349 56.8976 49.7804 56.8976C48.9259 56.8976 48.1064 57.237 47.5021 57.8413C46.8979 58.4455 46.5584 59.265 46.5584 60.1195C46.5584 60.974 46.8979 61.7936 47.5021 62.3978L50.5416 65.4373C48.9604 65.6325 47.3598 65.2857 46.0011 64.4536ZM85.9834 61.725C83.1262 63.4538 79.8187 63.7808 76.3852 62.7328L86.3693 52.7513C86.9736 52.1471 87.313 51.3276 87.313 50.4731C87.313 49.6186 86.9736 48.7991 86.3693 48.1948C85.7651 47.5906 84.9456 47.2511 84.0911 47.2511C83.2366 47.2511 82.417 47.5906 81.8128 48.1948L71.8286 58.1763C70.7914 54.7562 71.1184 51.4353 72.8364 48.5915C76.2404 42.9628 84.268 39.7465 94.6328 39.7465H94.815C94.8525 50.1997 91.6362 58.2889 85.9834 61.725Z" fill="white" stroke="black" stroke-width="2.09195"/>
</g>
<defs>
<linearGradient id="paint0_linear_4115_11667" x1="23.4299" y1="-3.90713e-07" x2="123.844" y2="118.823" gradientUnits="userSpaceOnUse">
<stop stop-color="#6A3BF8"/>
<stop offset="1" stop-color="#531BF8"/>
</linearGradient>
</defs>
</svg>
