<svg width="63" height="63" viewBox="0 0 63 63" fill="none" xmlns="http://www.w3.org/2000/svg">
<rect width="63" height="63" rx="16.8" fill="#E5F5FF"/>
<path d="M21.3449 21H19.9477C18.7879 21 17.8477 21.9402 17.8477 23.1V39.9C17.8477 41.0598 18.7879 42 19.9477 42H21.3449C22.5047 42 23.4449 41.0598 23.4449 39.9V23.1C23.4449 21.9402 22.5047 21 21.3449 21Z" stroke="#155A85" stroke-width="2.1" stroke-linecap="round" stroke-linejoin="round"/>
<path d="M31.1437 21H29.7465C28.5867 21 27.6465 21.9402 27.6465 23.1V39.9C27.6465 41.0598 28.5867 42 29.7465 42H31.1437C32.3035 42 33.2437 41.0598 33.2437 39.9V23.1C33.2437 21.9402 32.3035 21 31.1437 21Z" stroke="#155A85" stroke-width="2.1" stroke-linecap="round" stroke-linejoin="round"/>
<path d="M37.4989 26.4231C37.2679 25.5621 37.7789 24.6772 38.6385 24.4476L40.0917 24.0585C40.9513 23.8275 41.8347 24.3384 42.0657 25.198L45.8191 39.2177C45.8741 39.4221 45.8883 39.6354 45.8607 39.8453C45.8332 40.0552 45.7646 40.2577 45.6587 40.441C45.5529 40.6244 45.4119 40.7851 45.2439 40.9139C45.0758 41.0427 44.884 41.1371 44.6795 41.1917L43.2263 41.5823C43.0217 41.6373 42.8084 41.6514 42.5984 41.6237C42.3884 41.5961 42.1859 41.5274 42.0025 41.4214C41.8191 41.3154 41.6585 41.1743 41.5297 41.0061C41.401 40.8379 41.3067 40.6459 41.2523 40.4413L37.4989 26.4231Z" stroke="#155A85" stroke-width="2.1" stroke-linecap="round" stroke-linejoin="round"/>
</svg>
