<svg width="30" height="32" viewBox="0 0 30 32" fill="none" xmlns="http://www.w3.org/2000/svg">
<g clip-path="url(#clip0_3103_1446)">
<g clip-path="url(#clip1_3103_1446)">
<path d="M14.366 23.1275C20.7533 23.1275 25.9312 17.9496 25.9312 11.5623C25.9312 5.17499 20.7533 -0.00292969 14.366 -0.00292969C7.9787 -0.00292969 2.80078 5.17499 2.80078 11.5623C2.80078 17.9496 7.9787 23.1275 14.366 23.1275Z" fill="url(#paint0_linear_3103_1446)"/>
<path d="M11.7139 6.06571C13.422 5.24487 14.2741 3.47124 13.6171 2.10422C12.9602 0.737195 11.0429 0.294433 9.33489 1.11528C7.62684 1.93613 6.77476 3.70975 7.43172 5.07678C8.08868 6.4438 10.0059 6.88656 11.7139 6.06571Z" fill="url(#paint1_radial_3103_1446)"/>
<path d="M18.8462 13.549C19.0689 13.7789 19.2144 14.0739 19.3165 14.3753C19.569 15.1541 19.4728 16.0382 19.1489 16.7891C18.0132 19.4283 14.6023 20.4253 12.0747 19.2489C10.8138 18.6856 9.75173 17.5828 9.39619 16.2284C9.22723 15.5788 9.22723 14.8659 9.46892 14.2434C9.562 13.9861 9.70562 13.75 9.89132 13.549C9.96945 13.4679 10.0766 13.4211 10.1892 13.419C10.3018 13.4169 10.4106 13.4596 10.4917 13.5377C10.5994 13.6612 10.7142 13.7782 10.8355 13.8883C11.3826 14.3961 12.0399 14.6599 12.7487 14.7584C13.575 14.8691 14.3299 14.8627 15.1467 14.8343C15.9852 14.7995 16.8729 14.6752 17.5899 14.1426C17.6635 14.0907 17.7552 14.017 17.8243 13.9583C17.9707 13.8318 18.108 13.695 18.235 13.549C18.2746 13.5079 18.322 13.4752 18.3745 13.4528C18.4271 13.4305 18.4835 13.419 18.5406 13.419C18.5977 13.419 18.6542 13.4305 18.7067 13.4528C18.7592 13.4752 18.8066 13.5079 18.8462 13.549Z" fill="#6A371A"/>
<path d="M9.55707 10.4598C10.6284 10.4598 11.497 9.59133 11.497 8.51996C11.497 7.44859 10.6284 6.58008 9.55707 6.58008C8.4857 6.58008 7.61719 7.44859 7.61719 8.51996C7.61719 9.59133 8.4857 10.4598 9.55707 10.4598Z" fill="#6A371A"/>
<path d="M19.1782 10.4598C20.2495 10.4598 21.118 9.59133 21.118 8.51996C21.118 7.44859 20.2495 6.58008 19.1782 6.58008C18.1068 6.58008 17.2383 7.44859 17.2383 8.51996C17.2383 9.59133 18.1068 10.4598 19.1782 10.4598Z" fill="#6A371A"/>
</g>
</g>
<g filter="url(#filter0_f_3103_1446)">
<ellipse cx="14.763" cy="22.2166" rx="7.52083" ry="1.90409" fill="#FF8505"/>
</g>
<defs>
<filter id="filter0_f_3103_1446" x="-0.0015626" y="13.0687" width="29.5305" height="18.2961" filterUnits="userSpaceOnUse" color-interpolation-filters="sRGB">
<feFlood flood-opacity="0" result="BackgroundImageFix"/>
<feBlend mode="normal" in="SourceGraphic" in2="BackgroundImageFix" result="shape"/>
<feGaussianBlur stdDeviation="3.62188" result="effect1_foregroundBlur_3103_1446"/>
</filter>
<linearGradient id="paint0_linear_3103_1446" x1="6.18812" y1="3.38441" x2="22.5439" y2="19.7401" gradientUnits="userSpaceOnUse">
<stop stop-color="#FDF33F"/>
<stop offset="0.15" stop-color="#FDE639"/>
<stop offset="0.42" stop-color="#FDC42A"/>
<stop offset="0.78" stop-color="#FE8E11"/>
<stop offset="1" stop-color="#FE6900"/>
</linearGradient>
<radialGradient id="paint1_radial_3103_1446" cx="0" cy="0" r="1" gradientUnits="userSpaceOnUse" gradientTransform="translate(10.5578 3.58991) rotate(4.21865) scale(3.11865)">
<stop stop-color="#FEFCF5"/>
<stop offset="0.26" stop-color="#FEFDF5" stop-opacity="0.72"/>
<stop offset="0.78" stop-color="#FFFEF6" stop-opacity="0.21"/>
<stop offset="1" stop-color="#FFFEF6" stop-opacity="0"/>
</radialGradient>
<clipPath id="clip0_3103_1446">
<rect width="23.125" height="23.125" fill="white" transform="translate(2.80469)"/>
</clipPath>
<clipPath id="clip1_3103_1446">
<rect width="23.1304" height="23.1304" fill="white" transform="translate(2.80078 -0.00292969)"/>
</clipPath>
</defs>
</svg>
