<svg width="32" height="32" viewBox="0 0 32 32" fill="none" xmlns="http://www.w3.org/2000/svg">
<g clip-path="url(#clip0_1_21036)">
<g clip-path="url(#clip1_1_21036)">
<path d="M15.9998 32.0036C24.8385 32.0036 32.0036 24.8385 32.0036 15.9998C32.0036 7.16121 24.8385 -0.00390625 15.9998 -0.00390625C7.16121 -0.00390625 -0.00390625 7.16121 -0.00390625 15.9998C-0.00390625 24.8385 7.16121 32.0036 15.9998 32.0036Z" fill="url(#paint0_linear_1_21036)"/>
<path d="M12.3276 8.39325C14.6912 7.25737 15.8703 4.80306 14.9612 2.91139C14.0521 1.01973 11.3991 0.407041 9.03548 1.54292C6.67191 2.6788 5.49282 5.13311 6.40192 7.02477C7.31101 8.91644 9.96402 9.52913 12.3276 8.39325Z" fill="url(#paint1_radial_1_21036)"/>
<path d="M22.1963 18.7503C22.5045 19.0685 22.7058 19.4767 22.8471 19.8937C23.1966 20.9714 23.0634 22.1948 22.6152 23.2338C21.0436 26.8859 16.3237 28.2656 12.826 26.6377C11.0812 25.8582 9.61152 24.3322 9.11953 22.458C8.88573 21.5591 8.88573 20.5726 9.22018 19.7111C9.34899 19.3551 9.54772 19.0284 9.80469 18.7503C9.9128 18.638 10.0611 18.5733 10.2169 18.5704C10.3727 18.5675 10.5233 18.6266 10.6355 18.7346C10.7845 18.9055 10.9433 19.0675 11.1112 19.2198C11.8683 19.9224 12.7779 20.2875 13.7587 20.4238C14.9021 20.577 15.9468 20.5682 17.077 20.5288C18.2373 20.4807 19.4657 20.3088 20.4578 19.5717C20.5597 19.4998 20.6866 19.3979 20.7823 19.3167C20.9849 19.1416 21.1748 18.9523 21.3505 18.7503C21.4053 18.6934 21.471 18.6481 21.5436 18.6172C21.6163 18.5863 21.6945 18.5704 21.7734 18.5704C21.8524 18.5704 21.9306 18.5863 22.0032 18.6172C22.0759 18.6481 22.1416 18.6934 22.1963 18.7503Z" fill="#6A371A"/>
<path d="M9.34453 14.4742C10.8271 14.4742 12.0289 13.2724 12.0289 11.7898C12.0289 10.3073 10.8271 9.10547 9.34453 9.10547C7.86199 9.10547 6.66016 10.3073 6.66016 11.7898C6.66016 13.2724 7.86199 14.4742 9.34453 14.4742Z" fill="#6A371A"/>
<path d="M22.657 14.4742C24.1396 14.4742 25.3414 13.2724 25.3414 11.7898C25.3414 10.3073 24.1396 9.10547 22.657 9.10547C21.1745 9.10547 19.9727 10.3073 19.9727 11.7898C19.9727 13.2724 21.1745 14.4742 22.657 14.4742Z" fill="#6A371A"/>
</g>
</g>
<defs>
<linearGradient id="paint0_linear_1_21036" x1="4.68344" y1="4.68344" x2="27.3162" y2="27.3162" gradientUnits="userSpaceOnUse">
<stop stop-color="#FDF33F"/>
<stop offset="0.15" stop-color="#FDE639"/>
<stop offset="0.42" stop-color="#FDC42A"/>
<stop offset="0.78" stop-color="#FE8E11"/>
<stop offset="1" stop-color="#FE6900"/>
</linearGradient>
<radialGradient id="paint1_radial_1_21036" cx="0" cy="0" r="1" gradientUnits="userSpaceOnUse" gradientTransform="translate(10.7277 4.96728) rotate(4.21865) scale(4.31554)">
<stop stop-color="#FEFCF5"/>
<stop offset="0.26" stop-color="#FEFDF5" stop-opacity="0.72"/>
<stop offset="0.78" stop-color="#FFFEF6" stop-opacity="0.21"/>
<stop offset="1" stop-color="#FFFEF6" stop-opacity="0"/>
</radialGradient>
<clipPath id="clip0_1_21036">
<rect width="32" height="32" fill="white"/>
</clipPath>
<clipPath id="clip1_1_21036">
<rect width="32.0075" height="32.0075" fill="white" transform="translate(-0.00390625 -0.00390625)"/>
</clipPath>
</defs>
</svg>
