<svg width="20" height="20" viewBox="0 0 20 20" fill="none" xmlns="http://www.w3.org/2000/svg">
<g clip-path="url(#clip0_3103_1478)">
<path d="M10 19.375C15.1777 19.375 19.375 15.1777 19.375 10C19.375 4.82233 15.1777 0.625 10 0.625C4.82233 0.625 0.625 4.82233 0.625 10C0.625 15.1777 4.82233 19.375 10 19.375Z" fill="url(#paint0_linear_3103_1478)"/>
<path d="M13.125 14.375H6.875C6.53 14.375 6.25 14.0956 6.25 13.75C6.25 13.4044 6.53 13.125 6.875 13.125H13.125C13.47 13.125 13.75 13.4044 13.75 13.75C13.75 14.0956 13.47 14.375 13.125 14.375Z" fill="url(#paint1_linear_3103_1478)"/>
<path d="M8.125 7.5H5.625C5.28 7.5 5 7.22062 5 6.875C5 6.52938 5.28 6.25 5.625 6.25H8.125C8.47 6.25 8.75 6.52938 8.75 6.875C8.75 7.22062 8.47 7.5 8.125 7.5Z" fill="url(#paint2_linear_3103_1478)"/>
<path d="M14.375 7.5H11.875C11.53 7.5 11.25 7.22062 11.25 6.875C11.25 6.52938 11.53 6.25 11.875 6.25H14.375C14.72 6.25 15 6.52938 15 6.875C15 7.22062 14.72 7.5 14.375 7.5Z" fill="url(#paint3_linear_3103_1478)"/>
</g>
<defs>
<linearGradient id="paint0_linear_3103_1478" x1="0.625" y1="10" x2="19.375" y2="10" gradientUnits="userSpaceOnUse">
<stop stop-color="#FFF1AB"/>
<stop offset="0.480769" stop-color="#FFD321"/>
<stop offset="1" stop-color="#FF7701"/>
</linearGradient>
<linearGradient id="paint1_linear_3103_1478" x1="6.25" y1="13.75" x2="13.75" y2="13.75" gradientUnits="userSpaceOnUse">
<stop stop-color="#424242"/>
<stop offset="0.4586" stop-color="#353535"/>
<stop offset="1" stop-color="#212121"/>
</linearGradient>
<linearGradient id="paint2_linear_3103_1478" x1="5" y1="6.875" x2="8.75" y2="6.875" gradientUnits="userSpaceOnUse">
<stop stop-color="#424242"/>
<stop offset="0.4586" stop-color="#353535"/>
<stop offset="1" stop-color="#212121"/>
</linearGradient>
<linearGradient id="paint3_linear_3103_1478" x1="11.25" y1="6.875" x2="15" y2="6.875" gradientUnits="userSpaceOnUse">
<stop stop-color="#424242"/>
<stop offset="0.4586" stop-color="#353535"/>
<stop offset="1" stop-color="#212121"/>
</linearGradient>
<clipPath id="clip0_3103_1478">
<rect width="20" height="20" fill="white"/>
</clipPath>
</defs>
</svg>
