<svg width="20" height="20" viewBox="0 0 20 20" fill="none" xmlns="http://www.w3.org/2000/svg">
<g clip-path="url(#clip0_3103_1462)">
<path d="M10 20C15.5228 20 20 15.5228 20 10C20 4.47715 15.5228 0 10 0C4.47715 0 0 4.47715 0 10C0 15.5228 4.47715 20 10 20Z" fill="url(#paint0_linear_3103_1462)"/>
<path d="M11.7772 5.5445C11.9366 5.09255 12.5046 4.94646 12.8604 5.26716C13.185 5.55974 13.6151 5.86403 14.135 6.04724C14.655 6.23044 15.1808 6.26286 15.6171 6.23864C16.0956 6.21169 16.4464 6.68161 16.287 7.13357C16.214 7.3406 16.0452 7.49997 15.8339 7.55778C15.4171 7.67146 14.6491 7.77185 13.6511 7.41989C12.653 7.06833 12.1175 6.50857 11.864 6.15896C11.7354 5.98122 11.7038 5.75114 11.7768 5.5445H11.7772Z" fill="url(#paint1_linear_3103_1462)"/>
<path d="M8.22059 5.5445C8.06121 5.09255 7.49324 4.94646 7.13738 5.26716C6.81277 5.55974 6.3827 5.86403 5.86277 6.04724C5.34285 6.23044 4.81707 6.26286 4.38074 6.23864C3.90223 6.21169 3.55144 6.68161 3.71082 7.13357C3.78387 7.3406 3.95262 7.49997 4.16394 7.55778C4.58074 7.67146 5.34871 7.77185 6.34676 7.41989C7.34481 7.06833 7.88035 6.50857 8.13387 6.15896C8.26238 5.98122 8.29402 5.75114 8.22098 5.5445H8.22059Z" fill="url(#paint2_linear_3103_1462)"/>
<path d="M7.32641 15.7766C7.34907 15.4504 8.1393 14.3223 9.99868 14.3223C11.8581 14.3223 12.6483 15.4504 12.6709 15.7766C12.6913 16.0691 12.4905 16.1922 12.2436 16.1418C11.9975 16.0914 11.3909 15.5219 9.99829 15.5219C8.60571 15.5219 7.99946 16.0914 7.75297 16.1418C7.50688 16.1922 7.30532 16.0691 7.32563 15.7766H7.32641Z" fill="url(#paint3_radial_3103_1462)"/>
<path d="M13.509 13.0463C14.8278 13.0463 15.8969 11.9772 15.8969 10.6584C15.8969 9.3396 14.8278 8.27051 13.509 8.27051C12.1902 8.27051 11.1211 9.3396 11.1211 10.6584C11.1211 11.9772 12.1902 13.0463 13.509 13.0463Z" fill="url(#paint4_radial_3103_1462)"/>
<path d="M15.3633 10.1264C15.3633 11.1506 14.5324 11.9814 13.5074 11.9814C12.4824 11.9814 11.6523 11.1506 11.6523 10.1264C11.6523 9.10215 12.4828 8.27051 13.5074 8.27051C13.6898 8.27051 13.866 8.29668 14.032 8.34629C13.6891 8.4916 13.4484 8.83184 13.4484 9.22754C13.4484 9.75645 13.877 10.185 14.4055 10.185C14.8023 10.185 15.1418 9.94434 15.2871 9.60098C15.3367 9.76777 15.3629 9.94395 15.3629 10.1264H15.3633Z" fill="url(#paint5_radial_3103_1462)"/>
<path d="M6.48945 13.0463C7.80825 13.0463 8.87734 11.9772 8.87734 10.6584C8.87734 9.3396 7.80825 8.27051 6.48945 8.27051C5.17066 8.27051 4.10156 9.3396 4.10156 10.6584C4.10156 11.9772 5.17066 13.0463 6.48945 13.0463Z" fill="url(#paint6_radial_3103_1462)"/>
<path d="M8.34375 10.1264C8.34375 11.1506 7.51328 11.9814 6.48867 11.9814C5.46406 11.9814 4.63281 11.1506 4.63281 10.1264C4.63281 9.10215 5.46367 8.27051 6.48867 8.27051C6.67109 8.27051 6.84727 8.29668 7.01328 8.34629C6.67031 8.4916 6.42969 8.83184 6.42969 9.22754C6.42969 9.75645 6.8582 10.185 7.38672 10.185C7.78281 10.185 8.12266 9.94434 8.26797 9.60098C8.31758 9.76777 8.34375 9.94395 8.34375 10.1264Z" fill="url(#paint7_radial_3103_1462)"/>
</g>
<defs>
<linearGradient id="paint0_linear_3103_1462" x1="2.92891" y1="2.92891" x2="17.0711" y2="17.0711" gradientUnits="userSpaceOnUse">
<stop offset="0.1" stop-color="#FFF1AB"/>
<stop offset="0.4" stop-color="#FFDA24"/>
<stop offset="0.51" stop-color="#FFC81D"/>
<stop offset="0.74" stop-color="#FF9A0C"/>
<stop offset="0.9" stop-color="#FF7700"/>
</linearGradient>
<linearGradient id="paint1_linear_3103_1462" x1="14.0327" y1="7.66403" x2="14.0327" y2="5.09489" gradientUnits="userSpaceOnUse">
<stop stop-color="#3B2828"/>
<stop offset="1" stop-color="#705454"/>
</linearGradient>
<linearGradient id="paint2_linear_3103_1462" x1="5.96551" y1="7.66403" x2="5.96551" y2="5.09489" gradientUnits="userSpaceOnUse">
<stop stop-color="#3B2828"/>
<stop offset="1" stop-color="#705454"/>
</linearGradient>
<radialGradient id="paint3_radial_3103_1462" cx="0" cy="0" r="1" gradientUnits="userSpaceOnUse" gradientTransform="translate(9.99907 15.2375) scale(1.99844)">
<stop stop-color="#614444"/>
<stop offset="0.38" stop-color="#583C3C"/>
<stop offset="1" stop-color="#402828"/>
</radialGradient>
<radialGradient id="paint4_radial_3103_1462" cx="0" cy="0" r="1" gradientUnits="userSpaceOnUse" gradientTransform="translate(13.509 10.6584) scale(2.38789)">
<stop offset="0.75" stop-color="white"/>
<stop offset="0.82" stop-color="#FAFAFA"/>
<stop offset="0.89" stop-color="#EEEEEE"/>
<stop offset="0.96" stop-color="#D9D9D9"/>
<stop offset="1" stop-color="#CCCCCC"/>
</radialGradient>
<radialGradient id="paint5_radial_3103_1462" cx="0" cy="0" r="1" gradientUnits="userSpaceOnUse" gradientTransform="translate(13.5078 10.126) scale(1.85547)">
<stop stop-color="#705454"/>
<stop offset="0.27" stop-color="#674C4C"/>
<stop offset="0.71" stop-color="#4E3838"/>
<stop offset="1" stop-color="#3B2828"/>
</radialGradient>
<radialGradient id="paint6_radial_3103_1462" cx="0" cy="0" r="1" gradientUnits="userSpaceOnUse" gradientTransform="translate(6.48945 0.0193361) scale(2.38789)">
<stop offset="0.75" stop-color="white"/>
<stop offset="0.82" stop-color="#FAFAFA"/>
<stop offset="0.89" stop-color="#EEEEEE"/>
<stop offset="0.96" stop-color="#D9D9D9"/>
<stop offset="1" stop-color="#CCCCCC"/>
</radialGradient>
<radialGradient id="paint7_radial_3103_1462" cx="0" cy="0" r="1" gradientUnits="userSpaceOnUse" gradientTransform="translate(6.48828 10.126) scale(0.0195312)">
<stop stop-color="#705454"/>
<stop offset="0.27" stop-color="#674C4C"/>
<stop offset="0.71" stop-color="#4E3838"/>
<stop offset="1" stop-color="#3B2828"/>
</radialGradient>
<clipPath id="clip0_3103_1462">
<rect width="20" height="20" fill="white"/>
</clipPath>
</defs>
</svg>
